<?xml version="1.0" encoding="UTF-8"?>
<svg xmlns="http://www.w3.org/2000/svg" viewBox="0 0 320 260" role="img" aria-label="Meu Álbum 2026">
  <defs>
    <linearGradient id="foil" x1="0" y1="0" x2="1" y2="1">
    <stop offset="0%" stop-color="#7eb8d4"/>
    <stop offset="20%" stop-color="#d4568a"/>
    <stop offset="40%" stop-color="#e8d060"/>
    <stop offset="60%" stop-color="#3ec48a"/>
    <stop offset="80%" stop-color="#5b8def"/>
    <stop offset="100%" stop-color="#7eb8d4"/>
  </linearGradient>
    <linearGradient id="grad-blue-mint" x1="0" y1="0" x2="1" y2="1">
    <stop offset="0%" stop-color="#5b8def"/>
    <stop offset="100%" stop-color="#3ec48a"/>
  </linearGradient>
  </defs>
  <rect width="320" height="260" fill="#0f172a"/>
  <g transform="translate(90 18)">
    <circle cx="70" cy="70" r="70" fill="url(#foil)"/>
    <circle cx="70" cy="70" r="64" fill="#0f172a"/>
    <g transform="translate(29.71 30.32)">
      <path d="M0 78.26L0 69.88Q0 61.61 2.65 55.72Q5.29 49.82 12.12 42.66Q18.85 35.49 21.44 30.42Q24.03 25.35 24.03 19.84Q24.03 14.88 22.43 12.95Q20.83 11.02 17.75 11.02Q11.46 11.02 11.46 18.63L11.46 26.89L0 26.89L0 19.40Q0 10.03 4.63 5.02Q9.26 0 18.08 0Q26.89 0 31.52 5.02Q36.15 10.03 36.15 19.40Q36.15 26.45 32.79 33.18Q29.43 39.90 21.16 48.61Q15.76 54.34 13.89 57.92Q12.01 61.50 12.01 65.58L12.01 67.24L35.05 67.24L35.05 78.26L0 78.26M62.17 79.36Q53.24 79.36 48.50 74.29Q43.76 69.22 43.76 59.96L43.76 20.06Q43.76 0 62.28 0Q71.09 0 75.72 5.02Q80.35 10.03 80.35 19.40L80.35 20.83L68.89 20.83L68.89 18.63Q68.89 11.02 62.61 11.02Q59.19 11.02 57.54 13.12Q55.88 15.21 55.88 20.50L55.88 35.27L56.10 35.27Q59.30 28.55 67.13 28.55Q73.74 28.55 77.16 33.07Q80.57 37.59 80.57 46.18L80.57 59.96Q80.57 69.22 75.83 74.29Q71.09 79.36 62.17 79.36M62.17 68.34Q68.45 68.34 68.45 60.84L68.45 47.18Q68.45 39.57 62.17 39.57Q55.88 39.57 55.88 47.18L55.88 60.84Q55.88 68.34 62.17 68.34" fill="url(#foil)"/>
    </g>
  </g>
  <g transform="translate(49.26400000000001 0)"><g transform="translate(0 190)"><path d="M0 25.20L0 0L5.65 0L8.17 18.04L8.24 18.04L10.76 0L16.42 0L16.42 25.20L12.67 25.20L12.67 6.12L12.60 6.12L9.72 25.20L6.41 25.20L3.53 6.12L3.46 6.12L3.46 25.20L0 25.20M22.25 25.20L22.25 0L33.05 0L33.05 3.60L26.21 3.60L26.21 10.26L31.64 10.26L31.64 13.86L26.21 13.86L26.21 21.60L33.05 21.60L33.05 25.20L22.25 25.20M43.96 25.56Q41.08 25.56 39.56 23.92Q38.05 22.28 38.05 19.22L38.05 0L42.01 0L42.01 19.51Q42.01 20.81 42.53 21.38Q43.06 21.96 44.03 21.96Q45 21.96 45.52 21.38Q46.04 20.81 46.04 19.51L46.04 0L49.86 0L49.86 19.22Q49.86 22.28 48.35 23.92Q46.84 25.56 43.96 25.56" fill="#5b8def" transform="translate(0.00 5.83)"/><path d="M0 31.03L4.10 5.83L9.47 5.83L13.57 31.03L9.61 31.03L8.89 26.03L8.89 26.10L4.39 26.10L3.67 31.03L0 31.03M4.86 22.68L8.42 22.68L6.66 10.22L6.59 10.22L4.86 22.68M4.64 4.14L7.16 0L11.48 0L7.63 4.14L4.64 4.14M18.36 31.03L18.36 5.83L22.32 5.83L22.32 27.43L28.84 27.43L28.84 31.03L18.36 31.03M33.62 31.03L33.62 5.83L39.60 5.83Q42.66 5.83 44.06 7.25Q45.47 8.68 45.47 11.63L45.47 12.64Q45.47 14.58 44.84 15.80Q44.21 17.03 42.91 17.57L42.91 17.64Q45.86 18.65 45.86 22.90L45.86 25.06Q45.86 27.97 44.33 29.50Q42.80 31.03 39.85 31.03L33.62 31.03M37.58 16.09L39.13 16.09Q40.32 16.09 40.91 15.48Q41.51 14.87 41.51 13.43L41.51 12.02Q41.51 10.66 41.02 10.04Q40.54 9.43 39.49 9.43L37.58 9.43L37.58 16.09M37.58 27.43L39.85 27.43Q40.90 27.43 41.40 26.87Q41.90 26.32 41.90 24.95L41.90 22.75Q41.90 21.02 41.31 20.36Q40.72 19.69 39.35 19.69L37.58 19.69L37.58 27.43M56.81 31.39Q53.93 31.39 52.42 29.75Q50.90 28.12 50.90 25.06L50.90 5.83L54.86 5.83L54.86 25.34Q54.86 26.64 55.39 27.22Q55.91 27.79 56.88 27.79Q57.85 27.79 58.37 27.22Q58.90 26.64 58.90 25.34L58.90 5.83L62.71 5.83L62.71 25.06Q62.71 28.12 61.20 29.75Q59.69 31.39 56.81 31.39M68.40 31.03L68.40 5.83L74.05 5.83L76.57 23.87L76.64 23.87L79.16 5.83L84.82 5.83L84.82 31.03L81.07 31.03L81.07 11.95L81 11.95L78.12 31.03L74.81 31.03L71.93 11.95L71.86 11.95L71.86 31.03" fill="#ec5b87" transform="translate(61.38 0.00)"/><path d="M0 25.56L0 22.82Q0 20.12 0.86 18.20Q1.73 16.27 3.96 13.93Q6.16 11.59 7 9.94Q7.85 8.28 7.85 6.48Q7.85 4.86 7.33 4.23Q6.80 3.60 5.80 3.60Q3.74 3.60 3.74 6.08L3.74 8.78L0 8.78L0 6.34Q0 3.28 1.51 1.64Q3.02 0 5.90 0Q8.78 0 10.30 1.64Q11.81 3.28 11.81 6.34Q11.81 8.64 10.71 10.84Q9.61 13.03 6.91 15.88Q5.15 17.75 4.54 18.92Q3.92 20.09 3.92 21.42L3.92 21.96L11.45 21.96L11.45 25.56L0 25.56M23.08 25.92Q20.16 25.92 18.61 24.26Q17.06 22.61 17.06 19.58L17.06 6.34Q17.06 3.31 18.61 1.66Q20.16 0 23.08 0Q25.99 0 27.54 1.66Q29.09 3.31 29.09 6.34L29.09 19.58Q29.09 22.61 27.54 24.26Q25.99 25.92 23.08 25.92M23.08 22.32Q25.13 22.32 25.13 19.84L25.13 6.08Q25.13 3.60 23.08 3.60Q21.02 3.60 21.02 6.08L21.02 19.84Q21.02 22.32 23.08 22.32M34.56 25.56L34.56 22.82Q34.56 20.12 35.42 18.20Q36.29 16.27 38.52 13.93Q40.72 11.59 41.56 9.94Q42.41 8.28 42.41 6.48Q42.41 4.86 41.89 4.23Q41.36 3.60 40.36 3.60Q38.30 3.60 38.30 6.08L38.30 8.78L34.56 8.78L34.56 6.34Q34.56 3.28 36.07 1.64Q37.58 0 40.46 0Q43.34 0 44.86 1.64Q46.37 3.28 46.37 6.34Q46.37 8.64 45.27 10.84Q44.17 13.03 41.47 15.88Q39.71 17.75 39.10 18.92Q38.48 20.09 38.48 21.42L38.48 21.96L46.01 21.96L46.01 25.56L34.56 25.56M57.74 25.92Q54.83 25.92 53.28 24.26Q51.73 22.61 51.73 19.58L51.73 6.55Q51.73 0 57.78 0Q60.66 0 62.17 1.64Q63.68 3.28 63.68 6.34L63.68 6.80L59.94 6.80L59.94 6.08Q59.94 3.60 57.89 3.60Q56.77 3.60 56.23 4.28Q55.69 4.97 55.69 6.70L55.69 11.52L55.76 11.52Q56.81 9.32 59.36 9.32Q61.52 9.32 62.64 10.80Q63.76 12.28 63.76 15.08L63.76 19.58Q63.76 22.61 62.21 24.26Q60.66 25.92 57.74 25.92M57.74 22.32Q59.80 22.32 59.80 19.87L59.80 15.41Q59.80 12.92 57.74 12.92Q55.69 12.92 55.69 15.41L55.69 19.87Q55.69 22.32 57.74 22.32" fill="#3ec48a" transform="translate(157.72 5.47)"/></g></g>
</svg>