<?xml version="1.0" encoding="UTF-8"?>
<svg xmlns="http://www.w3.org/2000/svg" viewBox="0 0 520 240" role="img" aria-label="Meu Álbum 2026">
  <defs>
    <radialGradient id="foil" cx="50%" cy="50%" r="70%" gradientUnits="objectBoundingBox">
    <stop offset="0%" stop-color="#7eb8d4"/>
    <stop offset="20%" stop-color="#d4568a"/>
    <stop offset="40%" stop-color="#e8d060"/>
    <stop offset="60%" stop-color="#3ec48a"/>
    <stop offset="80%" stop-color="#5b8def"/>
    <stop offset="100%" stop-color="#7eb8d4"/>
    </radialGradient>
    <linearGradient id="grad-blue-mint" x1="0" y1="0" x2="1" y2="1">
      <stop offset="0%" stop-color="#5b8def"/>
      <stop offset="100%" stop-color="#3ec48a"/>
    </linearGradient>
  </defs>
  <rect width="520" height="240" fill="#0f172a"/>
  <g transform="translate(24 10)">
    <circle cx="110" cy="110" r="110" fill="url(#foil)"/>
    <circle cx="110" cy="110" r="100" fill="#0f172a"/>
    <g transform="translate(10 16.451612903225808) scale(3.225806451612903)">
    <path d="M4 0h18.5v5.2H9.8L22.8 28.4v5.2H4v-5.2h12.7L4 5.2V0zM30.2 16.4c0-8.8 6.4-14.2 13.8-14.2s13.8 5.4 13.8 14.2v1.4c0 5-2.8 9.2-7.2 11.4 4.6 2 7.2 6.2 7.2 11.6v1.4c0 8.8-6.4 14.2-13.8 14.2S30.2 49.6 30.2 40.8v-1.4c0-2.6 1.2-4.8 3.2-6.2-2.4-1.6-3.2-4-3.2-6.8V16.4zm7.4 0v10.2c0 3.6 2.8 6.4 6.4 6.4s6.4-2.8 6.4-6.4V16.4c0-3.6-2.8-6.4-6.4-6.4s-6.4 2.8-6.4 6.4zm0 23.4v1.4c0 3.6 2.8 6.4 6.4 6.4s6.4-2.8 6.4-6.4v-1.4c0-3.4-2.4-5.8-5.6-6.6-3.8 1-6.8 3.4-6.8 6.6z" fill="url(#foil)"/>
  </g>
    <defs>
      <path id="ring" d="M 110,110 m -98,0 a 98,98 0 1,1 196,0 a 98,98 0 1,1 -196,0"/>
    </defs>
    <text font-family="JetBrains Mono, monospace" font-size="11" letter-spacing="8" fill="#cbd5e1">
      <textPath href="#ring" startOffset="0">MEU·ÁLBUM·26·MEU·ÁLBUM·26·</textPath>
    </text>
  </g>
  <g transform="translate(270 18)">
    <text font-family="'Bebas Neue', sans-serif" font-size="86" letter-spacing="0.04em" fill="#5b8def">MEU</text>
    <text x="0" y="78" font-family="'Bebas Neue', sans-serif" font-size="86" letter-spacing="0.04em" fill="#ec5b87">ÁLBUM</text>
    <line x1="0" y1="92" x2="220" y2="92" stroke="#94a3b8" stroke-width="1" stroke-dasharray="2 6" opacity="0.35"/>
    <text x="0" y="178" font-family="'Bebas Neue', sans-serif" font-size="86" letter-spacing="0.04em" fill="url(#foil)">2026</text>
  </g>
</svg>