<?xml version="1.0" encoding="UTF-8"?>
<svg xmlns="http://www.w3.org/2000/svg" viewBox="0 0 319 80" role="img" aria-label="Meu Álbum 2026">
  <defs>
    <linearGradient id="foil" x1="0" y1="0" x2="1" y2="1">
    <stop offset="0%" stop-color="#7eb8d4"/>
    <stop offset="20%" stop-color="#d4568a"/>
    <stop offset="40%" stop-color="#e8d060"/>
    <stop offset="60%" stop-color="#3ec48a"/>
    <stop offset="80%" stop-color="#5b8def"/>
    <stop offset="100%" stop-color="#7eb8d4"/>
  </linearGradient>
    <linearGradient id="grad-blue-mint" x1="0" y1="0" x2="1" y2="1">
    <stop offset="0%" stop-color="#5b8def"/>
    <stop offset="100%" stop-color="#3ec48a"/>
  </linearGradient>
    <linearGradient id="wordmarkRainbow" gradientUnits="userSpaceOnUse" x1="90" y1="45" x2="305" y2="45">
      <stop offset="0%" stop-color="#7eb8d4"/>
      <stop offset="20%" stop-color="#d4568a"/>
      <stop offset="40%" stop-color="#e8d060"/>
      <stop offset="60%" stop-color="#3ec48a"/>
      <stop offset="80%" stop-color="#5b8def"/>
      <stop offset="100%" stop-color="#7eb8d4"/>
    </linearGradient>
    <clipPath id="wordmarkClip">
      <path d="M0 25.20L0 0L5.65 0L8.17 18.04L8.24 18.04L10.76 0L16.42 0L16.42 25.20L12.67 25.20L12.67 6.12L12.60 6.12L9.72 25.20L6.41 25.20L3.53 6.12L3.46 6.12L3.46 25.20L0 25.20M21.53 25.20L21.53 0L32.33 0L32.33 3.60L25.49 3.60L25.49 10.26L30.92 10.26L30.92 13.86L25.49 13.86L25.49 21.60L32.33 21.60L32.33 25.20L21.53 25.20M42.52 25.56Q39.64 25.56 38.12 23.92Q36.61 22.28 36.61 19.22L36.61 0L40.57 0L40.57 19.51Q40.57 20.81 41.09 21.38Q41.62 21.96 42.59 21.96Q43.56 21.96 44.08 21.38Q44.60 20.81 44.60 19.51L44.60 0L48.42 0L48.42 19.22Q48.42 22.28 46.91 23.92Q45.40 25.56 42.52 25.56" transform="translate(90 32.853555555555554)"/>
      <path d="M0 31.03L4.10 5.83L9.47 5.83L13.57 31.03L9.61 31.03L8.89 26.03L8.89 26.10L4.39 26.10L3.67 31.03L0 31.03M4.86 22.68L8.42 22.68L6.66 10.22L6.59 10.22L4.86 22.68M4.64 4.14L7.16 0L11.48 0L7.63 4.14L4.64 4.14M17.64 31.03L17.64 5.83L21.60 5.83L21.60 27.43L28.12 27.43L28.12 31.03L17.64 31.03M32.18 31.03L32.18 5.83L38.16 5.83Q41.22 5.83 42.62 7.25Q44.03 8.68 44.03 11.63L44.03 12.64Q44.03 14.58 43.40 15.80Q42.77 17.03 41.47 17.57L41.47 17.64Q44.42 18.65 44.42 22.90L44.42 25.06Q44.42 27.97 42.89 29.50Q41.36 31.03 38.41 31.03L32.18 31.03M36.14 16.09L37.69 16.09Q38.88 16.09 39.47 15.48Q40.07 14.87 40.07 13.43L40.07 12.02Q40.07 10.66 39.58 10.04Q39.10 9.43 38.05 9.43L36.14 9.43L36.14 16.09M36.14 27.43L38.41 27.43Q39.46 27.43 39.96 26.87Q40.46 26.32 40.46 24.95L40.46 22.75Q40.46 21.02 39.87 20.36Q39.28 19.69 37.91 19.69L36.14 19.69L36.14 27.43M54.65 31.39Q51.77 31.39 50.26 29.75Q48.74 28.12 48.74 25.06L48.74 5.83L52.70 5.83L52.70 25.34Q52.70 26.64 53.23 27.22Q53.75 27.79 54.72 27.79Q55.69 27.79 56.21 27.22Q56.74 26.64 56.74 25.34L56.74 5.83L60.55 5.83L60.55 25.06Q60.55 28.12 59.04 29.75Q57.53 31.39 54.65 31.39M65.52 31.03L65.52 5.83L71.17 5.83L73.69 23.87L73.76 23.87L76.28 5.83L81.94 5.83L81.94 31.03L78.19 31.03L78.19 11.95L78.12 11.95L75.24 31.03L71.93 31.03L69.05 11.95L68.98 11.95L68.98 31.03" transform="translate(148.5 27.023555555555554)"/>
      <path d="M0 25.56L0 22.82Q0 20.12 0.86 18.20Q1.73 16.27 3.96 13.93Q6.16 11.59 7 9.94Q7.85 8.28 7.85 6.48Q7.85 4.86 7.33 4.23Q6.80 3.60 5.80 3.60Q3.74 3.60 3.74 6.08L3.74 8.78L0 8.78L0 6.34Q0 3.28 1.51 1.64Q3.02 0 5.90 0Q8.78 0 10.30 1.64Q11.81 3.28 11.81 6.34Q11.81 8.64 10.71 10.84Q9.61 13.03 6.91 15.88Q5.15 17.75 4.54 18.92Q3.92 20.09 3.92 21.42L3.92 21.96L11.45 21.96L11.45 25.56L0 25.56M22.36 25.92Q19.44 25.92 17.89 24.26Q16.34 22.61 16.34 19.58L16.34 6.34Q16.34 3.31 17.89 1.66Q19.44 0 22.36 0Q25.27 0 26.82 1.66Q28.37 3.31 28.37 6.34L28.37 19.58Q28.37 22.61 26.82 24.26Q25.27 25.92 22.36 25.92M22.36 22.32Q24.41 22.32 24.41 19.84L24.41 6.08Q24.41 3.60 22.36 3.60Q20.30 3.60 20.30 6.08L20.30 19.84Q20.30 22.32 22.36 22.32M33.12 25.56L33.12 22.82Q33.12 20.12 33.98 18.20Q34.85 16.27 37.08 13.93Q39.28 11.59 40.12 9.94Q40.97 8.28 40.97 6.48Q40.97 4.86 40.45 4.23Q39.92 3.60 38.92 3.60Q36.86 3.60 36.86 6.08L36.86 8.78L33.12 8.78L33.12 6.34Q33.12 3.28 34.63 1.64Q36.14 0 39.02 0Q41.90 0 43.42 1.64Q44.93 3.28 44.93 6.34Q44.93 8.64 43.83 10.84Q42.73 13.03 40.03 15.88Q38.27 17.75 37.66 18.92Q37.04 20.09 37.04 21.42L37.04 21.96L44.57 21.96L44.57 25.56L33.12 25.56M55.58 25.92Q52.67 25.92 51.12 24.26Q49.57 22.61 49.57 19.58L49.57 6.55Q49.57 0 55.62 0Q58.50 0 60.01 1.64Q61.52 3.28 61.52 6.34L61.52 6.80L57.78 6.80L57.78 6.08Q57.78 3.60 55.73 3.60Q54.61 3.60 54.07 4.28Q53.53 4.97 53.53 6.70L53.53 11.52L53.60 11.52Q54.65 9.32 57.20 9.32Q59.36 9.32 60.48 10.80Q61.60 12.28 61.60 15.08L61.60 19.58Q61.60 22.61 60.05 24.26Q58.50 25.92 55.58 25.92M55.58 22.32Q57.64 22.32 57.64 19.87L57.64 15.41Q57.64 12.92 55.58 12.92Q53.53 12.92 53.53 15.41L53.53 19.87Q53.53 22.32 55.58 22.32" transform="translate(240.52 32.493555555555554)"/>
    </clipPath>
  </defs>
  <g transform="translate(8 8)">
    <circle cx="32" cy="32" r="32" fill="url(#foil)"/>
    <circle cx="32" cy="32" r="28.571428571428573" fill="#0f172a"/>
    <g transform="translate(13.14 13.43)">
      <path d="M0 36.63L0 32.71Q0 28.84 1.24 26.08Q2.48 23.32 5.67 19.96Q8.82 16.61 10.03 14.24Q11.25 11.87 11.25 9.29Q11.25 6.96 10.50 6.06Q9.75 5.16 8.31 5.16Q5.37 5.16 5.37 8.72L5.37 12.59L0 12.59L0 9.08Q0 4.69 2.17 2.35Q4.33 0 8.46 0Q12.59 0 14.75 2.35Q16.92 4.69 16.92 9.08Q16.92 12.38 15.35 15.53Q13.77 18.67 9.90 22.75Q7.38 25.43 6.50 27.11Q5.62 28.79 5.62 30.69L5.62 31.47L16.40 31.47L16.40 36.63L0 36.63M29.10 37.14Q24.92 37.14 22.70 34.77Q20.48 32.40 20.48 28.06L20.48 9.39Q20.48 0 29.15 0Q33.27 0 35.44 2.35Q37.61 4.69 37.61 9.08L37.61 9.75L32.24 9.75L32.24 8.72Q32.24 5.16 29.30 5.16Q27.70 5.16 26.93 6.14Q26.15 7.12 26.15 9.60L26.15 16.51L26.26 16.51Q27.75 13.36 31.42 13.36Q34.51 13.36 36.11 15.48Q37.71 17.59 37.71 21.62L37.71 28.06Q37.71 32.40 35.49 34.77Q33.27 37.14 29.10 37.14M29.10 31.98Q32.04 31.98 32.04 28.48L32.04 22.08Q32.04 18.52 29.10 18.52Q26.15 18.52 26.15 22.08L26.15 28.48Q26.15 31.98 29.10 31.98" fill="url(#foil)"/>
    </g>
  </g>
  <rect x="80" y="20" width="240" height="55" fill="url(#wordmarkRainbow)" clip-path="url(#wordmarkClip)"/>
</svg>
