<?xml version="1.0" encoding="UTF-8"?>
<svg xmlns="http://www.w3.org/2000/svg" viewBox="0 0 451 240" role="img" aria-label="Meu Álbum 2026">
  <defs>
    <linearGradient id="foil" x1="0" y1="0" x2="1" y2="1">
    <stop offset="0%" stop-color="#7eb8d4"/>
    <stop offset="20%" stop-color="#d4568a"/>
    <stop offset="40%" stop-color="#e8d060"/>
    <stop offset="60%" stop-color="#3ec48a"/>
    <stop offset="80%" stop-color="#5b8def"/>
    <stop offset="100%" stop-color="#7eb8d4"/>
  </linearGradient>
    <linearGradient id="grad-blue-mint" x1="0" y1="0" x2="1" y2="1">
    <stop offset="0%" stop-color="#5b8def"/>
    <stop offset="100%" stop-color="#3ec48a"/>
  </linearGradient>
  </defs>
  <rect width="451" height="240" fill="#0f172a"/>
  <g transform="translate(16 10)">
    <circle cx="110" cy="110" r="110" fill="url(#foil)"/>
    <circle cx="110" cy="110" r="100" fill="#0f172a"/>
    <g transform="translate(47.05 48.00)">
      <path d="M0 122.28L0 109.19Q0 96.27 4.13 87.06Q8.27 77.84 18.94 66.65Q29.45 55.46 33.50 47.53Q37.54 39.61 37.54 31Q37.54 23.25 35.05 20.24Q32.55 17.22 27.73 17.22Q17.91 17.22 17.91 29.11L17.91 42.02L0 42.02L0 30.31Q0 15.67 7.23 7.84Q14.47 0 28.24 0Q42.02 0 49.26 7.84Q56.49 15.67 56.49 30.31Q56.49 41.33 51.24 51.84Q45.98 62.34 33.07 75.95Q24.63 84.91 21.70 90.50Q18.77 96.10 18.77 102.47L18.77 105.06L54.77 105.06L54.77 122.28L0 122.28M97.13 124Q83.18 124 75.78 116.08Q68.37 108.16 68.37 93.69L68.37 31.34Q68.37 0 97.31 0Q111.08 0 118.32 7.84Q125.55 15.67 125.55 30.31L125.55 32.55L107.64 32.55L107.64 29.11Q107.64 17.22 97.82 17.22Q92.48 17.22 89.90 20.49Q87.32 23.77 87.32 32.03L87.32 55.11L87.66 55.11Q92.66 44.61 104.88 44.61Q115.22 44.61 120.56 51.67Q125.89 58.73 125.89 72.16L125.89 93.69Q125.89 108.16 118.49 116.08Q111.08 124 97.13 124M97.13 106.78Q106.95 106.78 106.95 95.07L106.95 73.71Q106.95 61.83 97.13 61.83Q87.32 61.83 87.32 73.71L87.32 95.07Q87.32 106.78 97.13 106.78" fill="url(#foil)"/>
    </g>
  </g>
  <g transform="translate(0 23.888000000000005)"><g transform="translate(268 0)"><path d="M0 53.20L0 0L11.93 0L17.25 38.08L17.40 38.08L22.72 0L34.66 0L34.66 53.20L26.75 53.20L26.75 12.92L26.60 12.92L20.52 53.20L13.53 53.20L7.45 12.92L7.30 12.92L7.30 53.20L0 53.20M43.93 53.20L43.93 0L66.73 0L66.73 7.60L52.29 7.60L52.29 21.66L63.76 21.66L63.76 29.26L52.29 29.26L52.29 45.60L66.73 45.60L66.73 53.20L43.93 53.20M86.72 53.96Q80.64 53.96 77.44 50.50Q74.25 47.04 74.25 40.58L74.25 0L82.61 0L82.61 41.19Q82.61 43.93 83.71 45.14Q84.82 46.36 86.87 46.36Q88.92 46.36 90.02 45.14Q91.12 43.93 91.12 41.19L91.12 0L99.18 0L99.18 40.58Q99.18 47.04 95.99 50.50Q92.80 53.96 86.72 53.96" fill="#5b8def" transform="translate(0 0.00)"/><path d="M0 65.51L8.66 12.31L19.99 12.31L28.65 65.51L20.29 65.51L18.77 54.95L18.77 55.10L9.27 55.10L7.75 65.51L0 65.51M10.26 47.88L17.78 47.88L14.06 21.58L13.91 21.58L10.26 47.88M9.80 8.74L15.12 0L24.24 0L16.11 8.74L9.80 8.74M35.72 65.51L35.72 12.31L44.08 12.31L44.08 57.91L57.84 57.91L57.84 65.51L35.72 65.51M64.90 65.51L64.90 12.31L77.52 12.31Q83.98 12.31 86.94 15.31Q89.91 18.32 89.91 24.55L89.91 26.68Q89.91 30.78 88.58 33.36Q87.25 35.95 84.51 37.09L84.51 37.24Q90.74 39.37 90.74 48.34L90.74 52.90Q90.74 59.05 87.51 62.28Q84.28 65.51 78.05 65.51L64.90 65.51M73.26 33.97L76.53 33.97Q79.04 33.97 80.29 32.68Q81.55 31.39 81.55 28.35L81.55 25.38Q81.55 22.50 80.52 21.20Q79.50 19.91 77.29 19.91L73.26 19.91L73.26 33.97M73.26 57.91L78.05 57.91Q80.26 57.91 81.32 56.73Q82.38 55.56 82.38 52.67L82.38 48.03Q82.38 44.38 81.13 42.98Q79.88 41.57 76.99 41.57L73.26 41.57L73.26 57.91M110.81 66.27Q104.73 66.27 101.54 62.81Q98.34 59.36 98.34 52.90L98.34 12.31L106.70 12.31L106.70 53.50Q106.70 56.24 107.81 57.46Q108.91 58.67 110.96 58.67Q113.01 58.67 114.11 57.46Q115.22 56.24 115.22 53.50L115.22 12.31L123.27 12.31L123.27 52.90Q123.27 59.36 120.08 62.81Q116.89 66.27 110.81 66.27M132.24 65.51L132.24 12.31L144.17 12.31L149.49 50.39L149.64 50.39L154.96 12.31L166.90 12.31L166.90 65.51L158.99 65.51L158.99 25.23L158.84 25.23L152.76 65.51L145.77 65.51L139.69 25.23L139.54 25.23L139.54 65.51" fill="#ec5b87" transform="translate(0 57.20)"/><path d="M0 53.96L0 48.18Q0 42.48 1.82 38.42Q3.65 34.35 8.36 29.41Q13 24.47 14.78 20.98Q16.57 17.48 16.57 13.68Q16.57 10.26 15.47 8.93Q14.36 7.60 12.24 7.60Q7.90 7.60 7.90 12.84L7.90 18.54L0 18.54L0 13.38Q0 6.92 3.19 3.46Q6.38 0 12.46 0Q18.54 0 21.74 3.46Q24.93 6.92 24.93 13.38Q24.93 18.24 22.61 22.88Q20.29 27.51 14.59 33.52Q10.87 37.47 9.58 39.94Q8.28 42.41 8.28 45.22L8.28 46.36L24.17 46.36L24.17 53.96L0 53.96M45.68 54.72Q39.52 54.72 36.25 51.22Q32.98 47.73 32.98 41.34L32.98 13.38Q32.98 6.99 36.25 3.50Q39.52 0 45.68 0Q51.83 0 55.10 3.50Q58.37 6.99 58.37 13.38L58.37 41.34Q58.37 47.73 55.10 51.22Q51.83 54.72 45.68 54.72M45.68 47.12Q50.01 47.12 50.01 41.88L50.01 12.84Q50.01 7.60 45.68 7.60Q41.34 7.60 41.34 12.84L41.34 41.88Q41.34 47.12 45.68 47.12M66.88 53.96L66.88 48.18Q66.88 42.48 68.70 38.42Q70.53 34.35 75.24 29.41Q79.88 24.47 81.66 20.98Q83.45 17.48 83.45 13.68Q83.45 10.26 82.35 8.93Q81.24 7.60 79.12 7.60Q74.78 7.60 74.78 12.84L74.78 18.54L66.88 18.54L66.88 13.38Q66.88 6.92 70.07 3.46Q73.26 0 79.34 0Q85.42 0 88.62 3.46Q91.81 6.92 91.81 13.38Q91.81 18.24 89.49 22.88Q87.17 27.51 81.47 33.52Q77.75 37.47 76.46 39.94Q75.16 42.41 75.16 45.22L75.16 46.36L91.05 46.36L91.05 53.96L66.88 53.96M112.78 54.72Q106.63 54.72 103.36 51.22Q100.09 47.73 100.09 41.34L100.09 13.83Q100.09 0 112.86 0Q118.94 0 122.13 3.46Q125.32 6.92 125.32 13.38L125.32 14.36L117.42 14.36L117.42 12.84Q117.42 7.60 113.09 7.60Q110.73 7.60 109.59 9.04Q108.45 10.49 108.45 14.14L108.45 24.32L108.60 24.32Q110.81 19.68 116.20 19.68Q120.76 19.68 123.12 22.80Q125.48 25.92 125.48 31.84L125.48 41.34Q125.48 47.73 122.21 51.22Q118.94 54.72 112.78 54.72M112.78 47.12Q117.12 47.12 117.12 41.95L117.12 32.53Q117.12 27.28 112.78 27.28Q108.45 27.28 108.45 32.53L108.45 41.95Q108.45 47.12 112.78 47.12" fill="url(#foil)" transform="translate(0 138.26)"/></g></g>
</svg>