<svg xmlns="http://www.w3.org/2000/svg" viewBox="0 0 240 240" role="img" aria-label="26">
  <defs>
    <linearGradient id="foil" x1="0" y1="0" x2="1" y2="1">
    <stop offset="0%" stop-color="#7eb8d4"/>
    <stop offset="20%" stop-color="#d4568a"/>
    <stop offset="40%" stop-color="#e8d060"/>
    <stop offset="60%" stop-color="#3ec48a"/>
    <stop offset="80%" stop-color="#5b8def"/>
    <stop offset="100%" stop-color="#7eb8d4"/>
  </linearGradient>
  </defs>
  <circle cx="120" cy="120" r="120" fill="url(#foil)"/>
  <circle cx="120" cy="120" r="109.0909090909091" fill="#0f172a"/>
  <g transform="translate(51.33 52.36)">
    <path d="M0 133.39L0 119.12Q0 105.02 4.51 94.97Q9.02 84.92 20.67 72.71Q32.13 60.50 36.54 51.85Q40.96 43.21 40.96 33.82Q40.96 25.36 38.23 22.08Q35.51 18.79 30.25 18.79Q19.54 18.79 19.54 31.75L19.54 45.84L0 45.84L0 33.07Q0 17.10 7.89 8.55Q15.78 0 30.81 0Q45.84 0 53.73 8.55Q61.62 17.10 61.62 33.07Q61.62 45.09 55.89 56.55Q50.16 68.01 36.07 82.85Q26.87 92.62 23.67 98.73Q20.48 104.84 20.48 111.79L20.48 114.61L59.75 114.61L59.75 133.39L0 133.39M105.96 135.27Q90.75 135.27 82.67 126.63Q74.59 117.99 74.59 102.21L74.59 34.19Q74.59 0 106.15 0Q121.18 0 129.07 8.55Q136.96 17.10 136.96 33.07L136.96 35.51L117.42 35.51L117.42 31.75Q117.42 18.79 106.72 18.79Q100.89 18.79 98.07 22.36Q95.25 25.93 95.25 34.95L95.25 60.12L95.63 60.12Q101.08 48.66 114.42 48.66Q125.69 48.66 131.52 56.36Q137.34 64.07 137.34 78.72L137.34 102.21Q137.34 117.99 129.26 126.63Q121.18 135.27 105.96 135.27M105.96 116.48Q116.67 116.48 116.67 103.71L116.67 80.41Q116.67 67.45 105.96 67.45Q95.25 67.45 95.25 80.41L95.25 103.71Q95.25 116.48 105.96 116.48" fill="url(#foil)"/>
  </g>
</svg>