<?xml version="1.0" encoding="UTF-8"?>
<svg xmlns="http://www.w3.org/2000/svg" viewBox="0 0 32 32">
  <defs>
    <linearGradient id="g32" x1="0" y1="0" x2="1" y2="1">
      <stop offset="0%" stop-color="#5b8def"/>
      <stop offset="100%" stop-color="#3ec48a"/>
    </linearGradient>
  </defs>
  <rect width="32" height="32" rx="7" fill="#0f172a"/>
  <rect x="3" y="3" width="26" height="26" rx="5" fill="url(#g32)"/>
  <g transform="translate(6.86 7.00)">
    <path d="M0 17.75L0 15.85Q0 13.97 0.60 12.64Q1.20 11.30 2.75 9.67Q4.28 8.05 4.86 6.90Q5.45 5.75 5.45 4.50Q5.45 3.38 5.09 2.94Q4.72 2.50 4.03 2.50Q2.60 2.50 2.60 4.22L2.60 6.10L0 6.10L0 4.40Q0 2.27 1.05 1.14Q2.10 0 4.10 0Q6.10 0 7.15 1.14Q8.20 2.27 8.20 4.40Q8.20 6 7.44 7.52Q6.68 9.05 4.80 11.02Q3.57 12.32 3.15 13.14Q2.73 13.95 2.73 14.88L2.73 15.25L7.95 15.25L7.95 17.75L0 17.75M14.10 18Q12.08 18 11 16.85Q9.93 15.70 9.93 13.60L9.93 4.55Q9.93 0 14.13 0Q16.13 0 17.17 1.14Q18.23 2.27 18.23 4.40L18.23 4.72L15.63 4.72L15.63 4.22Q15.63 2.50 14.20 2.50Q13.43 2.50 13.05 2.97Q12.68 3.45 12.68 4.65L12.68 8L12.72 8Q13.45 6.47 15.22 6.47Q16.72 6.47 17.50 7.50Q18.27 8.53 18.27 10.47L18.27 13.60Q18.27 15.70 17.20 16.85Q16.13 18 14.10 18M14.10 15.50Q15.53 15.50 15.53 13.80L15.53 10.70Q15.53 8.97 14.10 8.97Q12.68 8.97 12.68 10.70L12.68 13.80Q12.68 15.50 14.10 15.50" fill="#0f172a"/>
  </g>
</svg>