<?xml version="1.0" encoding="UTF-8"?>
<svg xmlns="http://www.w3.org/2000/svg" viewBox="0 0 32 32">
  <defs>
    <linearGradient id="g32" x1="0" y1="0" x2="1" y2="1">
      <stop offset="0%" stop-color="#5b8def"/>
      <stop offset="100%" stop-color="#3ec48a"/>
    </linearGradient>
  </defs>
  <rect width="32" height="32" rx="7" fill="#0F172A"/>
  <rect x="3" y="3" width="26" height="26" rx="5" fill="url(#g32)"/>
  <g transform="translate(6.379310344827585 7) scale(0.3103448275862069)">
    <path d="M4 0h18.5v5.2H9.8L22.8 28.4v5.2H4v-5.2h12.7L4 5.2V0zM30.2 16.4c0-8.8 6.4-14.2 13.8-14.2s13.8 5.4 13.8 14.2v1.4c0 5-2.8 9.2-7.2 11.4 4.6 2 7.2 6.2 7.2 11.6v1.4c0 8.8-6.4 14.2-13.8 14.2S30.2 49.6 30.2 40.8v-1.4c0-2.6 1.2-4.8 3.2-6.2-2.4-1.6-3.2-4-3.2-6.8V16.4zm7.4 0v10.2c0 3.6 2.8 6.4 6.4 6.4s6.4-2.8 6.4-6.4V16.4c0-3.6-2.8-6.4-6.4-6.4s-6.4 2.8-6.4 6.4zm0 23.4v1.4c0 3.6 2.8 6.4 6.4 6.4s6.4-2.8 6.4-6.4v-1.4c0-3.4-2.4-5.8-5.6-6.6-3.8 1-6.8 3.4-6.8 6.6z" fill="#0F172A"/>
  </g>
</svg>