<?xml version="1.0" encoding="UTF-8" standalone="no"?>
<!-- Created with Inkscape (http://www.inkscape.org/) -->

<svg
   version="1.1"
   id="svg1"
   width="294.52148"
   height="236.21875"
   viewBox="0 0 294.52148 236.21875"
   xml:space="preserve"
   xmlns="http://www.w3.org/2000/svg"
   xmlns:svg="http://www.w3.org/2000/svg"><defs
     id="defs1" /><g
     id="g1"
     transform="translate(486.6504,-146.09766)"><path
       id="path9217-8"
       style="fill:#ffffff;stroke-width:0.451978"
       d="m -335.32031,146.09766 c -18.322,0 -29.92969,12.14336 -29.92969,31.31054 0,6.87581 -0.60107,9.26172 -2.33008,9.26172 -4.80646,0 -6.15434,12.35111 -1.67383,15.74024 3.07056,2.32262 4.37825,5.61964 6.44727,9.94531 2.06904,4.32568 5.37392,9.2029 7.3457,10.83789 9.10104,7.54651 3.28864,17.70794 -13.54101,23.67383 -13.75615,4.87637 -22.4468,9.96239 -26.65625,15.74219 -11.77718,-6.02722 -14.99116,-14.46007 -7.15821,-20.95508 1.97178,-1.63497 5.27668,-6.51222 7.34571,-10.83789 1.26052,-2.63533 1.92134,-5.32611 3.28906,-7.28516 0.87727,-1.25658 2.58133,-2.21133 3.1582,-2.6582 3.89996,-3.02109 3.48645,-12.12586 -0.66015,-14.54297 l -3.34375,-1.94922 v -9.03711 c 0,-18.73945 -11.83816,-30.78516 -30.25586,-30.78516 -18.322,0 -29.92969,12.14336 -29.92969,31.31055 0,6.87582 -0.5991,9.26367 -2.32813,9.26367 -4.80645,0 -6.15433,12.35112 -1.67382,15.74024 3.07055,2.32261 4.37629,5.61768 6.44531,9.94336 2.06904,4.32567 5.37392,9.20292 7.3457,10.83789 9.10105,7.5465 3.2906,17.7099 -13.53906,23.67578 -20.42646,7.24091 -29.6875,14.94204 -29.6875,24.69336 v 92.29297 h 294.52148 v -93.75977 c 0,-9.75131 -9.26103,-17.45245 -29.6875,-24.69336 -16.82966,-5.96589 -22.64206,-16.12928 -13.54101,-23.67578 1.97179,-1.63497 5.27861,-6.51028 7.34765,-10.83594 1.26051,-2.63533 1.9194,-5.32609 3.28711,-7.28515 0.87728,-1.25657 2.58133,-2.21329 3.15821,-2.66016 3.89995,-3.0211 3.48839,-12.12585 -0.65821,-14.54297 l -3.34375,-1.94922 v -9.03711 c 0,-18.73944 -11.83815,-30.7832 -30.25586,-30.7832 -18.32199,0 -29.93164,12.14338 -29.93164,31.31055 0,6.87582 -0.5991,9.26172 -2.32812,9.26172 -4.80645,0 -6.15629,12.3511 -1.67578,15.74023 3.07056,2.32261 4.37823,5.61963 6.44726,9.94531 2.06903,4.32566 5.37586,9.20097 7.34766,10.83594 6.71731,5.56994 5.31041,12.56531 -2.6543,18.24609 -4.86404,-4.11168 -12.34685,-7.89801 -22.69531,-11.5664 -16.82966,-5.96589 -22.64207,-16.12732 -13.54102,-23.67383 1.97178,-1.63499 5.27863,-6.51221 7.34766,-10.83789 1.26051,-2.63532 1.9194,-5.32611 3.28711,-7.28516 0.87728,-1.25658 2.58133,-2.21326 3.1582,-2.66015 3.89996,-3.0211 3.48644,-12.1239 -0.66015,-14.54102 l -3.34375,-1.95117 v -9.03711 c 0,-18.73944 -11.83817,-30.7832 -30.25586,-30.7832 z" /></g></svg>
