<?xml version="1.0" encoding="UTF-8" standalone="no"?>
<!-- Created with Inkscape (http://www.inkscape.org/) -->

<svg
   version="1.1"
   id="svg1"
   width="260.46744"
   height="337.35834"
   viewBox="0 0 260.46744 337.35834"
   xml:space="preserve"
   xmlns="http://www.w3.org/2000/svg"
   xmlns:svg="http://www.w3.org/2000/svg"><defs
     id="defs1" /><g
     id="g1"
     transform="translate(-37.976845,-44.73402)"><path
       style="fill:#ffffff;stroke-width:0.941508"
       d="m 37.976843,310.30976 c 0,-20.641 18.980584,-36.94476 60.854051,-52.27188 34.500156,-12.62823 46.415166,-34.13856 27.758386,-50.11252 -4.04209,-3.46085 -10.8195,-13.78399 -15.06094,-22.94031 -4.24142,-9.15633 -6.91944,-16.13266 -13.213967,-21.04903 -9.18487,-7.17389 -6.420629,-33.32048 3.432397,-33.32048 3.54443,0 4.77413,-5.04947 4.77413,-19.60378 0,-40.571929 23.79708,-66.277741 61.35647,-66.277741 37.75558,0 62.02285,25.495515 62.02285,65.162041 v 19.13035 l 6.8544,4.12569 c 8.50038,5.11639 9.34688,24.38905 1.35213,30.78392 -1.18258,0.94592 -4.6772,2.96861 -6.47559,5.62845 -2.80377,4.14681 -4.15439,9.84229 -6.7384,15.42058 -4.24144,9.15632 -11.01885,19.47946 -15.06093,22.94031 -18.6568,15.97396 -6.74178,37.48429 27.75838,50.11252 41.87348,15.32712 60.85406,31.63088 60.85406,52.27188 v 71.7826 H 168.21055 37.976843 Z"
       id="path9217" /></g></svg>
