<?xml version="1.0" encoding="UTF-8" standalone="no"?>
<!-- Created with Inkscape (http://www.inkscape.org/) -->

<svg
   version="1.1"
   id="svg1"
   width="205.03278"
   height="205.49036"
   viewBox="0 0 205.03277 205.49036"
   xml:space="preserve"
   xmlns="http://www.w3.org/2000/svg"
   xmlns:svg="http://www.w3.org/2000/svg"><defs
     id="defs1" /><path
     style="fill:#ffffff"
     d="m 80.347743,204.03235 c -10.76776,-2.33744 -15.78492,-4.10066 -25.57407,-8.98765 -8.93737,-4.46177 -20.1365,-12.40396 -25.91903,-18.38125 l -3.43379,-3.54944 1.9397,-3.13849 c 1.06683,-1.72617 3.92749,-4.42654 6.35701,-6.00082 l 4.41732,-2.86232 -5.13651,-1.41592 c -7.9463,-2.19044 -16.49678,-6.81728 -22.29472,-12.06411 -4.8735797,-4.41033 -5.4884797,-5.40573 -8.0041697,-12.95693 -3.5399803,-10.62577 -3.4389103,-11.91802 0.42759,-5.46719 11.2095497,18.70191 33.1286097,26.26305 52.3051097,18.04304 2.22689,-0.95455 10.67907,-5.85926 18.78263,-10.89935 20.559201,-12.78701 21.592311,-13.26886 28.456117,-13.27225 3.80095,-0.002 6.80648,0.53693 8.85314,1.58713 6.17626,3.16921 41.23115,25.32539 43.69993,27.62022 3.36339,3.1264 4.99237,7.26901 4.99237,12.69593 0,2.45026 0.34388,4.45501 0.76417,4.45501 0.42029,0 2.65838,-2.02507 4.97353,-4.50015 4.15956,-4.44691 4.20232,-4.55316 3.61487,-8.98158 -0.90702,-6.83748 -3.37079,-10.79166 -9.13302,-14.65788 -7.89227,-5.29538 -40.18509,-25.48406 -43.1573,-26.98089 -4.46425,-2.24822 -12.74185,-3.54974 -18.461016,-2.90269 -7.425906,0.84015 -12.018811,2.81282 -22.706101,9.75238 -25.91841,16.82954 -30.57171,18.82999 -41.64559,17.90342 -6.02318,-0.50397 -12.72702,-2.63486 -15.01454,-4.77253 -1.00226,-0.9366 -0.47806,-0.88728 2.13726,0.20109 10.49541,4.36768 22.08546,3.44291 32.52678,-2.59532 19.08792,-11.03856 36.891819,-22.9782 41.576381,-27.88192 7.962336,-8.334845 8.114216,-9.071085 8.695006,-42.149658 l 0.49741,-28.330065 2.48577,-5.30928 c 1.36718,-2.920103 3.35914,-6.260829 4.42658,-7.423834 2.49215,-2.715267 8.57125,-7.186463 9.7708,-7.186463 0.50847,0 -0.27961,0.896381 -1.75127,1.991957 -4.10967,3.059425 -8.03228,7.917006 -10.25796,12.702982 -1.98103,4.259891 -2.01797,4.914629 -2.01797,35.767989 v 31.428677 l 2.32638,4.869235 c 4.12659,8.63715 3.44487,8.12929 51.86473,38.63697 5.60993,3.53462 9.16799,8.65008 9.77744,14.05715 0.2501,2.21883 0.78621,3.91929 1.19138,3.77879 0.40516,-0.14049 2.52445,-2.79717 4.70953,-5.90373 l 3.97288,-5.64828 -1.79281,-3.5142 c -3.60558,-7.06752 -8.5102,-10.99855 -31.91493,-25.57966 -13.57205,-8.45536 -23.82697,-15.44039 -25.0511,-17.063285 -3.60693,-4.78185 -4.00903,-8.41974 -3.97327,-35.946981 0.0364,-28.05862 0.26694,-29.800058 4.71657,-35.633821 3.66281,-4.802189 7.71328,-6.42025 16.04452,-6.409373 5.74724,0.0075 8.00052,0.439191 11.95175,2.289741 6.40919,3.001733 12.8324,9.375898 15.77533,15.654892 2.34679,5.007072 2.37921,5.339405 2.8688,29.410448 0.41459,20.383444 0.75534,25.066654 2.09353,28.772734 2.39571,6.634835 3.83646,9.102465 7.86856,13.476765 3.15729,3.42526 10.32358,9.09876 11.4928,9.09876 0.21093,0 0.89274,-2.39963 1.51514,-5.3325 l 1.13163,-5.3325 -5.89954,-6.11087 c -3.582,-3.710305 -6.83386,-8.136435 -8.27793,-11.267155 -2.32225,-5.03456 -2.3897,-5.66829 -2.85762,-26.846492 -0.26358,-11.929614 -0.39079,-21.845057 -0.28268,-22.034318 0.10811,-0.189261 0.67089,0.806718 1.25063,2.213287 0.63174,1.532716 1.28828,10.361278 1.6386,22.034317 0.55205,18.394866 0.71037,19.747446 2.84982,24.346156 2.06777,4.44466 10.71247,14.190385 11.70597,13.196885 0.23031,-0.23031 0.69077,-3.07386 1.02324,-6.319015 0.56774,-5.54145 0.46019,-6.07177 -1.76863,-8.72057 -5.34472,-6.35184 -6.10095,-9.04908 -6.80574,-24.274085 -0.36065,-7.790768 -1.06719,-15.493376 -1.57009,-17.116907 -1.04486,-3.373135 -4.34858,-9.212111 -8.84903,-15.639731 l -3.09936,-4.426572 2.94175,2.655943 c 9.32665,8.420521 21.2489,29.497017 25.23452,44.610331 5.32911,20.207741 4.91007,37.395646 -1.41555,58.063246 -8.39544,27.43028 -28.67428,50.55003 -55.21854,62.95423 -14.1708,6.62204 -23.04222,8.53882 -41.1526,8.89149 -12.708088,0.24748 -16.879867,6.5e-4 -23.208497,-1.37317 z m 26.307097,-8.83446 4.42658,-0.64438 -8.73659,-4.14457 c -26.626537,-12.63143 -39.594767,-14.55123 -48.249817,-7.14282 -2.0117,1.72193 -3.65763,3.46293 -3.65763,3.86888 0,0.40595 2.69915,1.79707 5.99811,3.09137 l 5.99811,2.35328 3.96168,-2.26438 c 6.40355,-3.66008 12.53982,-3.2125 22.99594,1.67734 8.706751,4.07174 9.851501,4.28428 17.263617,3.20528 z m 15.11397,-3.30208 c 5.28922,-1.75256 6.85562,-2.96954 3.87603,-3.0114 -2.3779,-0.0334 -7.79231,-2.13364 -27.843136,-10.80027 -21.014731,-9.08326 -38.977851,-12.47004 -49.468791,-9.32688 -3.90774,1.17079 -12.06056,8.29305 -12.06056,10.53604 0,0.73024 1.68932,2.29744 3.75405,3.48268 6.75542,3.87789 6.84252,3.87796 10.78982,0.008 6.48383,-6.35662 15.45611,-7.81862 28.03094,-4.56756 3.60808,0.93282 13.133591,4.67408 21.167817,8.3139 8.03423,3.63983 15.23391,6.66133 15.99929,6.71445 0.76537,0.0531 3.35492,-0.55396 5.75454,-1.34906 z m -4.65599,-16.92463 c -1.73205,-3.77366 -3.29969,-7.02719 -3.48365,-7.23007 -0.98792,-1.08957 -1.26004,1.2328 -0.71203,6.07662 0.56664,5.00838 0.84075,5.54946 3.37442,6.6607 1.51673,0.66522 3.03056,1.24199 3.36407,1.28171 0.33351,0.0397 -0.81076,-3.01531 -2.54281,-6.78896 z m -8.10176,-4.70751 c -0.32635,-7.00217 -1.13273,-6.88568 -2.88454,0.4167 -0.93264,3.88766 -0.87496,4.48082 0.53603,5.51256 0.86961,0.63588 1.82122,1.00891 2.11468,0.82896 0.29346,-0.17995 0.39868,-3.22115 0.23383,-6.75822 z m 27.78472,1.42782 c 2.72044,-2.72044 2.76377,-6.02754 0.13971,-10.66402 l -2.00421,-3.54126 -12.79152,-0.24687 c -7.27295,-0.14036 -12.41766,0.0843 -11.92494,0.52075 0.47663,0.42219 3.9521,1.86773 7.72328,3.21232 7.3813,2.63175 10.69933,5.52116 11.73026,10.21497 0.74903,3.41028 3.99189,3.63964 7.12742,0.50411 z m -34.40524,-5.35213 c 0.9745,-3.65192 1.57976,-6.63986 1.34503,-6.63986 -0.58753,0 -2.45067,2.36814 -5.566616,7.07542 -2.4383,3.68356 -2.52011,4.05896 -1.1093,5.09056 2.74989,2.01077 3.537586,1.19422 5.330886,-5.52612 z m -8.491086,-0.66399 c 1.03856,-2.06942 3.437,-5.83705 5.32988,-8.3725 1.892876,-2.53545 3.441596,-4.84534 3.441596,-5.13309 0,-0.91228 -7.347656,4.55337 -12.173068,9.0551 -5.134859,4.79042 -5.615199,6.1107 -2.655939,7.30018 3.397719,1.36571 4.110225,1.03053 6.057531,-2.84969 z m -8.565821,-4.60741 c 2.26893,-2.65581 7.396801,-7.30179 11.395291,-10.3244 6.647206,-5.02488 7.004546,-5.44579 4.171376,-4.91361 -5.270076,0.98995 -16.963177,7.31262 -23.452617,12.68126 l -6.189,5.12008 3.53305,1.06467 c 5.58558,1.68318 6.17884,1.47901 10.5419,-3.628 z m -14.49702,-1.8922 c 5.82557,-5.99985 13.79607,-11.42269 23.353671,-15.88898 4.66436,-2.17967 8.480646,-4.15157 8.480646,-4.38199 0,-0.61966 -7.687496,0.44041 -13.367357,1.8433 -10.24269,2.52987 -20.33281,8.20359 -29.95555,16.84411 l -4.81173,4.32059 3.48376,0.53835 c 7.8763,1.21715 8.64537,1.0206 12.81656,-3.27538 z m 42.825987,-7.79958 c 0.31072,-1.6563 1.56602,-4.89421 2.78956,-7.19536 2.101,-3.95145 2.14125,-4.27604 0.72434,-5.84171 -2.03333,-2.24681 -2.55429,-2.1194 -5.12731,1.25401 -2.25323,2.95413 -5.31005,12.6131 -4.43819,14.0238 0.26197,0.42388 1.60364,0.77069 2.98148,0.77069 2.1483,0 2.58565,-0.42898 3.07012,-3.01143 z m 9.00094,1.46213 c 0.25307,-0.85211 0.99942,-2.61107 1.65855,-3.90878 1.09011,-2.14624 1.01193,-2.53469 -0.86503,-4.298 -1.1349,-1.06618 -2.44289,-1.70401 -2.90665,-1.41739 -1.39132,0.85988 -3.71445,6.40912 -3.71445,8.87265 0,1.97155 0.38407,2.30082 2.68373,2.30082 1.79044,0 2.83688,-0.51569 3.14385,-1.5493 z m 7.85647,-1.14664 c -2.3843,-2.48868 -2.66929,-2.57777 -3.70689,-1.15876 -2.05473,2.81001 -1.35472,3.8547 2.58288,3.8547 h 3.70689 z m 3.20141,-5.51915 c -0.72501,-2.19681 -2.44771,-3.81096 -7.19108,-6.73797 -3.43072,-2.117 -6.49648,-3.59029 -6.81279,-3.27398 -0.31632,0.31632 2.79024,3.96225 6.90346,8.10206 7.60309,7.65225 9.13122,8.06329 7.10041,1.90989 z M 85.081973,138.6183 c 3.10047,-0.95682 8.765111,-2.24363 12.588101,-2.85957 7.782096,-1.25383 7.416016,-2.13807 -1.19634,-2.88967 -5.608552,-0.48946 -5.928602,-0.40042 -12.615731,3.5098 -6.23259,3.64443 -8.77996,5.65478 -5.63722,4.44879 0.67318,-0.25832 3.76072,-1.25253 6.86119,-2.20935 z m 22.015527,-9.46215 c -2.46377,-1.40842 -5.52047,-1.6335 -8.853136,-0.6519 -1.85691,0.54693 -1.50052,0.73642 2.213276,1.1768 2.43462,0.28869 5.42255,0.57337 6.63986,0.63261 l 2.21329,0.10772 z m 44.6942,-20.58356 c -2.54928,-6.11129 -2.54987,-6.12045 -0.61082,-9.406905 l 1.89326,-3.20884 -4.17538,0.008 c -3.64171,0.007 -4.47894,-0.3608 -6.55027,-2.87727 -2.50282,-3.04069 -2.63138,-2.96452 -3.7728,2.23542 -0.31415,1.43115 -1.45892,2.88294 -2.72989,3.46203 -1.20387,0.54852 -2.18123,1.431365 -2.1719,1.961855 0.0216,1.22704 10.14865,7.17837 14.18726,8.33736 4.36569,1.25285 4.65109,1.2157 3.93054,-0.51163 z m -0.12876,-33.902925 c 3.72811,-8.827456 3.47237,-8.552111 9.01153,-9.702037 l 4.85379,-1.007644 V 60.10329 c 0,-3.360972 -0.41526,-4.198984 -3.23067,-6.519689 l -3.23068,-2.662996 0.58565,-7.022454 c 0.8148,-9.770206 -0.0251,-10.335107 -8.17086,-5.495779 l -6.17545,3.668766 -7.62501,-3.275671 c -4.19375,-1.801619 -7.82042,-3.080256 -8.05926,-2.841415 -0.23885,0.23884 0.44329,4.032485 1.51585,8.430321 l 1.9501,7.996065 -4.58472,5.14395 c -2.52161,2.829172 -4.58473,5.814742 -4.58473,6.634599 0,1.677826 2.44779,2.552511 7.19318,2.570386 7.26693,0.02737 8.10652,0.576079 12.31902,8.051064 2.17175,3.853718 4.2827,6.896438 4.691,6.761608 0.4083,-0.13483 2.00187,-3.227407 3.54126,-6.87238 z M 29.189833,125.28123 c -4.4042,-1.44716 -9.35362,-4.44074 -12.12773,-7.33526 -9.5686397,-9.984 -9.3375397,-28.515645 0.48796,-39.128635 1.28918,-1.392515 11.78113,-8.864837 23.31544,-16.605172 22.39755,-15.030341 25.29424,-17.676129 29.81274,-27.230506 5.2261,-11.050575 5.58186,-22.016344 0.9264,-28.5543437 -1.65787,-2.328255 -1.66634,-2.491712 -0.16863,-3.255027 0.86729,-0.442022 3.51767,-1.277392 5.88973,-1.856382 3.81665,-0.93159993 4.51823,-0.86987993 6.09806,0.53643 2.18619,1.946066 4.19679,6.511003 4.19679,9.5285337 0,1.232947 0.21364,2.241722 0.47476,2.241722 0.26111,0 2.950259,-1.8948 5.975861,-4.2106657 8.065836,-6.173759 15.876706,-9.53258993 21.879436,-9.40860993 5.2698,0.10885 15.93566,2.76578993 15.93566,3.96969293 0,0.407477 -0.55318,0.528591 -1.22929,0.269143 -1.9875,-0.762674 -12.12783,1.364933 -16.91966,3.55002 -7.04717,3.2135287 -13.20973,9.4159097 -17.028236,17.1382887 l -3.33399,6.742502 -0.44266,28.379353 -0.44266,28.379361 -2.454342,4.17524 c -1.349899,2.29639 -3.740249,5.13109 -5.311889,6.29934 -5.31837,3.953305 -36.12238,22.853285 -40.15365,24.636505 -4.49117,1.98666 -12.03107,2.83892 -15.3801,1.73847 z m 30.84409,-20.70667 c 2.11569,2.53696 2.52269,2.69787 4.00209,1.58218 1.59766,-1.20487 1.59105,-1.32039 -0.22133,-3.86565 -1.02752,-1.44301 -1.86821,-2.829695 -1.86821,-3.081505 0,-0.25182 2.78874,-1.74326 6.1972,-3.31433 3.40846,-1.57106 6.1972,-3.16266 6.1972,-3.53688 0,-0.37423 -1.01626,-1.42071 -2.25835,-2.32551 l -2.25835,-1.64509 3.5959,-10.038165 3.59591,-10.038169 -2.99976,0.562758 c -2.60638,0.488961 -3.07043,0.298951 -3.53875,-1.448976 -0.29645,-1.106453 -0.54443,-2.908114 -0.55108,-4.003691 -0.0156,-2.57552 -0.70189,-2.510543 -3.68668,0.349067 -2.38052,2.280683 -2.50355,2.301679 -4.77316,0.814575 -1.28131,-0.839547 -2.49644,-1.35966 -2.70029,-1.155807 -0.20386,0.203854 -1.02072,3.611755 -1.81525,7.573114 -0.79453,3.96136 -1.75929,7.007987 -2.1439,6.770283 -0.38461,-0.237704 -1.18717,-1.920609 -1.78347,-3.739788 -0.59629,-1.819179 -1.8125,-5.01506 -2.70269,-7.101957 l -1.61851,-3.794359 -9.31365,6.248774 c -5.1225,3.436826 -9.31365,6.405948 -9.31365,6.59805 0,0.192101 2.59121,2.837481 5.75823,5.878621 3.16703,3.04113 5.61677,5.6708 5.44386,5.84371 -0.17291,0.1729 -3.18855,-0.29023 -6.70142,-1.02918 -9.05395,-1.90456 -9.11062,-1.89342 -8.44404,1.65976 0.53253,2.83867 0.38912,3.06086 -2.61583,4.05258 -1.74859,0.57708 -3.17926,1.35401 -3.17926,1.72649 0,0.37249 1.39438,1.42817 3.09861,2.34595 3.48601,1.87734 3.73508,2.63662 1.6285,4.964375 -0.80855,0.89344 -1.29484,1.79969 -1.08065,2.01389 0.2142,0.21419 5.05886,0.66861 10.7659,1.00981 5.70705,0.3412 10.37645,0.93435 10.37645,1.31811 0,0.38377 0.3988,1.74668 0.88622,3.02869 l 0.88622,2.33093 5.39039,-4.68842 5.39039,-4.68841 z m 27.58667,-52.042095 c 0,-6.379503 -0.39606,-9.663003 -1.39965,-11.603739 -1.39038,-2.688687 -1.40833,-2.694243 -2.70833,-0.838236 -1.02967,1.470061 -1.66259,1.678985 -2.96872,0.979965 -2.42551,-1.298096 -2.66176,-1.150382 -2.66176,1.664259 0,1.866317 -0.51103,2.686326 -1.90059,3.049703 -1.76009,0.460275 -1.5519,0.899503 2.81639,5.941889 4.07921,4.708696 4.57558,5.671281 3.67122,7.119402 -1.50897,2.416248 -1.3758,2.583867 2.05284,2.583867 h 3.0986 z M 1.2299655e-4,79.879695 C -0.013977,79.071485 1.182983,74.711982 2.6600733,70.191911 7.5891533,55.108327 16.546833,40.500101 27.861863,29.092716 c 6.50848,-6.561608 16.23385,-13.893277 17.44025,-13.147684 3.49715,2.161356 4.37981,13.243457 1.53658,19.292173 -2.28063,4.851835 -2.03457,4.64324 -18.25805,15.477821 C 13.763683,60.61029 8.1958133,66.03512 3.1508133,75.491565 1.4320529,78.713245 0.014243,80.687895 1.2299655e-4,79.879695 Z M 10.203503,74.914748 c 2.74239,-4.721145 7.05662,-8.242666 24.00867,-19.597235 8.84882,-5.926989 17.55986,-12.255141 19.35785,-14.062559 3.9505,-3.971197 7.14704,-10.517681 8.32346,-17.046365 l 0.87059,-4.831455 -0.29344,5.80873 c -0.35581,7.043467 -2.9353,13.283411 -7.42904,17.971282 -1.80193,1.879778 -11.02353,8.610071 -20.49245,14.956206 -9.46891,6.346136 -19.19845,13.373554 -21.6212,15.616485 -4.1479897,3.840122 -4.3069397,3.909256 -2.72444,1.184911 z"
     id="path1" /></svg>
